<mxfile host="65bd71144e">
    <diagram id="kqH6EHPwQwqNFfbiyOFH" name="Page-1">
        <mxGraphModel dx="486" dy="393" grid="1" gridSize="10" guides="1" tooltips="1" connect="1" arrows="1" fold="1" page="1" pageScale="1" pageWidth="1169" pageHeight="827" math="0" shadow="0">
            <root>
                <mxCell id="0"/>
                <mxCell id="1" parent="0"/>
                <mxCell id="2" value="&lt;h1 style=&quot;font-size: 32px;&quot;&gt;&lt;font style=&quot;font-size: 32px;&quot;&gt;Sequence Diagram&lt;/font&gt;&lt;/h1&gt;&lt;p style=&quot;&quot;&gt;&lt;font style=&quot;font-size: 16px;&quot;&gt;Sequence diagram of an employee logging on to the application, then adding a consumption of food to an animal.&lt;/font&gt;&lt;/p&gt;" style="text;html=1;strokeColor=none;fillColor=none;spacing=5;spacingTop=-20;whiteSpace=wrap;overflow=hidden;rounded=0;align=center;" vertex="1" parent="1">
                    <mxGeometry x="14" y="10" width="1140" height="120" as="geometry"/>
                </mxCell>
                <mxCell id="3" value="&lt;font color=&quot;#ffb366&quot;&gt;Employee&lt;/font&gt;" style="shape=umlActor;verticalLabelPosition=bottom;verticalAlign=top;html=1;fontSize=16;fillColor=#fad7ac;strokeColor=#b46504;" vertex="1" parent="1">
                    <mxGeometry x="67.5" y="160" width="30" height="60" as="geometry"/>
                </mxCell>
                <mxCell id="4" value="" style="html=1;points=[];perimeter=orthogonalPerimeter;fillColor=strokeColor;fontSize=16;" vertex="1" parent="1">
                    <mxGeometry x="80" y="250" width="5" height="550" as="geometry"/>
                </mxCell>
                <mxCell id="7" value="&lt;font color=&quot;#99ccff&quot;&gt;Application&lt;/font&gt;" style="shape=umlLifeline;perimeter=lifelinePerimeter;whiteSpace=wrap;html=1;container=1;collapsible=0;recursiveResize=0;outlineConnect=0;fontSize=16;strokeColor=#99CCFF;strokeWidth=2;" vertex="1" parent="1">
                    <mxGeometry x="310" y="160" width="100" height="650" as="geometry"/>
                </mxCell>
                <mxCell id="8" value="" style="html=1;points=[];perimeter=orthogonalPerimeter;fontSize=16;fillColor=#b1ddf0;strokeColor=#10739e;" vertex="1" parent="7">
                    <mxGeometry x="45" y="140" width="10" height="60" as="geometry"/>
                </mxCell>
                <mxCell id="18" value="" style="html=1;points=[];perimeter=orthogonalPerimeter;fontSize=16;fillColor=#b1ddf0;strokeColor=#10739e;" vertex="1" parent="7">
                    <mxGeometry x="45" y="220" width="10" height="90" as="geometry"/>
                </mxCell>
                <mxCell id="23" value="" style="html=1;points=[];perimeter=orthogonalPerimeter;fontSize=16;fillColor=#b1ddf0;strokeColor=#10739e;" vertex="1" parent="7">
                    <mxGeometry x="45" y="330" width="10" height="90" as="geometry"/>
                </mxCell>
                <mxCell id="29" value="" style="html=1;points=[];perimeter=orthogonalPerimeter;fontSize=16;fillColor=#b1ddf0;strokeColor=#10739e;" vertex="1" parent="7">
                    <mxGeometry x="45" y="450" width="10" height="50" as="geometry"/>
                </mxCell>
                <mxCell id="32" value="" style="html=1;points=[];perimeter=orthogonalPerimeter;fontSize=16;fillColor=#b1ddf0;strokeColor=#10739e;" vertex="1" parent="7">
                    <mxGeometry x="45" y="530" width="10" height="70" as="geometry"/>
                </mxCell>
                <mxCell id="12" value="Database" style="shape=umlLifeline;perimeter=lifelinePerimeter;whiteSpace=wrap;html=1;container=1;collapsible=0;recursiveResize=0;outlineConnect=0;fontSize=16;fontColor=#99CCFF;strokeColor=#99CCFF;" vertex="1" parent="1">
                    <mxGeometry x="590" y="140" width="100" height="650" as="geometry"/>
                </mxCell>
                <mxCell id="13" value="" style="html=1;points=[];perimeter=orthogonalPerimeter;fillColor=#B1DDF0;fontSize=16;strokeColor=#10739e;" vertex="1" parent="12">
                    <mxGeometry x="45" y="260" width="10" height="50" as="geometry"/>
                </mxCell>
                <mxCell id="26" value="" style="html=1;points=[];perimeter=orthogonalPerimeter;fillColor=#B1DDF0;fontSize=16;strokeColor=#10739e;" vertex="1" parent="12">
                    <mxGeometry x="45" y="370" width="10" height="50" as="geometry"/>
                </mxCell>
                <mxCell id="34" value="" style="html=1;points=[];perimeter=orthogonalPerimeter;fillColor=#B1DDF0;fontSize=16;strokeColor=#10739e;" vertex="1" parent="12">
                    <mxGeometry x="45" y="560" width="10" height="50" as="geometry"/>
                </mxCell>
                <mxCell id="15" value="&lt;font style=&quot;font-size: 12px;&quot;&gt;Open login page&lt;/font&gt;" style="html=1;verticalAlign=bottom;labelBackgroundColor=none;endArrow=classic;endFill=1;fontSize=16;fontColor=#99CCFF;exitX=0.5;exitY=0.127;exitDx=0;exitDy=0;exitPerimeter=0;strokeWidth=2;" edge="1" parent="1" source="4" target="8">
                    <mxGeometry x="-0.0018" width="160" relative="1" as="geometry">
                        <mxPoint x="90" y="280" as="sourcePoint"/>
                        <mxPoint x="250" y="280" as="targetPoint"/>
                        <mxPoint as="offset"/>
                    </mxGeometry>
                </mxCell>
                <mxCell id="16" value="&lt;font style=&quot;font-size: 12px;&quot;&gt;Display login page&lt;/font&gt;" style="html=1;verticalAlign=bottom;labelBackgroundColor=none;endArrow=open;endFill=0;fontSize=16;fontColor=#99CCFF;strokeWidth=2;dashed=1;" edge="1" parent="1" source="7" target="4">
                    <mxGeometry x="0.0146" y="20" width="160" relative="1" as="geometry">
                        <mxPoint x="340" y="340" as="sourcePoint"/>
                        <mxPoint x="90" y="360" as="targetPoint"/>
                        <Array as="points">
                            <mxPoint x="320" y="340"/>
                            <mxPoint x="280" y="340"/>
                        </Array>
                        <mxPoint as="offset"/>
                    </mxGeometry>
                </mxCell>
                <mxCell id="17" value="&lt;font style=&quot;font-size: 12px;&quot;&gt;Enter login details&lt;/font&gt;" style="html=1;verticalAlign=bottom;labelBackgroundColor=none;endArrow=classic;endFill=1;fontSize=16;fontColor=#99CCFF;strokeWidth=2;" edge="1" parent="1" source="4" target="7">
                    <mxGeometry width="160" relative="1" as="geometry">
                        <mxPoint x="85" y="429.9999999999999" as="sourcePoint"/>
                        <mxPoint x="357.5" y="429.9999999999999" as="targetPoint"/>
                        <Array as="points">
                            <mxPoint x="230" y="390"/>
                        </Array>
                    </mxGeometry>
                </mxCell>
                <mxCell id="19" value="&lt;font style=&quot;font-size: 12px;&quot;&gt;Checking Login details&lt;/font&gt;" style="html=1;verticalAlign=bottom;labelBackgroundColor=none;endArrow=classic;endFill=1;fontSize=16;fontColor=#99CCFF;strokeWidth=2;" edge="1" parent="1" source="18" target="13">
                    <mxGeometry x="0.0029" width="160" relative="1" as="geometry">
                        <mxPoint x="430" y="439.47000000000014" as="sourcePoint"/>
                        <mxPoint x="910" y="410" as="targetPoint"/>
                        <Array as="points">
                            <mxPoint x="460" y="410"/>
                        </Array>
                        <mxPoint as="offset"/>
                    </mxGeometry>
                </mxCell>
                <mxCell id="21" value="&lt;font style=&quot;font-size: 12px;&quot;&gt;Display Employee Interface&lt;/font&gt;" style="html=1;verticalAlign=bottom;labelBackgroundColor=none;endArrow=open;endFill=0;fontSize=16;fontColor=#99CCFF;strokeWidth=2;dashed=1;" edge="1" parent="1" source="18" target="4">
                    <mxGeometry x="-0.004" width="160" relative="1" as="geometry">
                        <mxPoint x="335" y="510" as="sourcePoint"/>
                        <mxPoint x="60" y="510" as="targetPoint"/>
                        <Array as="points">
                            <mxPoint x="270" y="450"/>
                        </Array>
                        <mxPoint as="offset"/>
                    </mxGeometry>
                </mxCell>
                <mxCell id="20" value="&lt;font style=&quot;font-size: 12px;&quot;&gt;Login details ok&lt;/font&gt;" style="html=1;verticalAlign=bottom;labelBackgroundColor=none;endArrow=open;endFill=0;fontSize=16;fontColor=#99CCFF;strokeWidth=2;dashed=1;" edge="1" parent="1" source="13" target="7">
                    <mxGeometry x="-0.0083" y="20" width="160" relative="1" as="geometry">
                        <mxPoint x="915" y="454" as="sourcePoint"/>
                        <mxPoint x="360" y="440" as="targetPoint"/>
                        <Array as="points">
                            <mxPoint x="630" y="430"/>
                        </Array>
                        <mxPoint as="offset"/>
                    </mxGeometry>
                </mxCell>
                <mxCell id="24" value="&lt;font style=&quot;font-size: 12px;&quot;&gt;Access Food consumption Panel&amp;nbsp;&lt;/font&gt;" style="html=1;verticalAlign=bottom;labelBackgroundColor=none;endArrow=classic;endFill=1;fontSize=16;fontColor=#99CCFF;strokeWidth=2;" edge="1" parent="1" source="4" target="23">
                    <mxGeometry x="0.0018" width="160" relative="1" as="geometry">
                        <mxPoint x="90" y="500" as="sourcePoint"/>
                        <mxPoint x="359.0000000000001" y="500" as="targetPoint"/>
                        <Array as="points">
                            <mxPoint x="230" y="500"/>
                        </Array>
                        <mxPoint as="offset"/>
                    </mxGeometry>
                </mxCell>
                <mxCell id="25" value="&lt;span style=&quot;font-size: 12px;&quot;&gt;Search consumptions&lt;/span&gt;" style="html=1;verticalAlign=bottom;labelBackgroundColor=none;endArrow=classic;endFill=1;fontSize=16;fontColor=#99CCFF;strokeWidth=2;" edge="1" parent="1" source="23" target="26">
                    <mxGeometry width="160" relative="1" as="geometry">
                        <mxPoint x="380" y="520" as="sourcePoint"/>
                        <mxPoint x="650" y="520" as="targetPoint"/>
                        <Array as="points">
                            <mxPoint x="525" y="520"/>
                        </Array>
                        <mxPoint as="offset"/>
                    </mxGeometry>
                </mxCell>
                <mxCell id="27" value="&lt;font style=&quot;font-size: 12px;&quot;&gt;Consumptions loaded&lt;/font&gt;" style="html=1;verticalAlign=bottom;labelBackgroundColor=none;endArrow=open;endFill=0;fontSize=16;fontColor=#99CCFF;strokeWidth=2;dashed=1;" edge="1" parent="1" source="26" target="23">
                    <mxGeometry x="-0.0085" y="20" width="160" relative="1" as="geometry">
                        <mxPoint x="624.56" y="540" as="sourcePoint"/>
                        <mxPoint x="380" y="540" as="targetPoint"/>
                        <Array as="points">
                            <mxPoint x="619.56" y="540"/>
                        </Array>
                        <mxPoint as="offset"/>
                    </mxGeometry>
                </mxCell>
                <mxCell id="28" value="&lt;font style=&quot;font-size: 12px;&quot;&gt;Display consumptions&lt;/font&gt;" style="html=1;verticalAlign=bottom;labelBackgroundColor=none;endArrow=open;endFill=0;fontSize=16;fontColor=#99CCFF;strokeWidth=2;dashed=1;" edge="1" parent="1" source="23" target="4">
                    <mxGeometry x="-0.0083" y="20" width="160" relative="1" as="geometry">
                        <mxPoint x="340" y="560" as="sourcePoint"/>
                        <mxPoint x="100" y="560" as="targetPoint"/>
                        <Array as="points">
                            <mxPoint x="220" y="560"/>
                        </Array>
                        <mxPoint as="offset"/>
                    </mxGeometry>
                </mxCell>
                <mxCell id="30" value="&lt;font style=&quot;font-size: 12px;&quot;&gt;Access &quot;New Consumption&quot; window&lt;/font&gt;" style="html=1;verticalAlign=bottom;labelBackgroundColor=none;endArrow=classic;endFill=1;fontSize=16;fontColor=#99CCFF;strokeWidth=2;" edge="1" parent="1" source="4" target="29">
                    <mxGeometry x="0.0018" width="160" relative="1" as="geometry">
                        <mxPoint x="85" y="640" as="sourcePoint"/>
                        <mxPoint x="355" y="640" as="targetPoint"/>
                        <Array as="points">
                            <mxPoint x="230" y="620"/>
                        </Array>
                        <mxPoint as="offset"/>
                    </mxGeometry>
                </mxCell>
                <mxCell id="31" value="&lt;font style=&quot;font-size: 12px;&quot;&gt;Display new consumption entry interface.&lt;/font&gt;" style="html=1;verticalAlign=bottom;labelBackgroundColor=none;endArrow=open;endFill=0;fontSize=16;fontColor=#99CCFF;strokeWidth=2;dashed=1;" edge="1" parent="1" source="29" target="4">
                    <mxGeometry x="-0.0083" y="20" width="160" relative="1" as="geometry">
                        <mxPoint x="350" y="650" as="sourcePoint"/>
                        <mxPoint x="100" y="650" as="targetPoint"/>
                        <Array as="points">
                            <mxPoint x="220" y="645"/>
                        </Array>
                        <mxPoint as="offset"/>
                    </mxGeometry>
                </mxCell>
                <mxCell id="33" value="&lt;font style=&quot;font-size: 12px;&quot;&gt;Enter new consumption information&lt;/font&gt;" style="html=1;verticalAlign=bottom;labelBackgroundColor=none;endArrow=classic;endFill=1;fontSize=16;fontColor=#99CCFF;strokeWidth=2;" edge="1" parent="1" source="4" target="32">
                    <mxGeometry x="0.0018" width="160" relative="1" as="geometry">
                        <mxPoint x="97.5" y="689.9999999999999" as="sourcePoint"/>
                        <mxPoint x="340" y="690" as="targetPoint"/>
                        <Array as="points">
                            <mxPoint x="243" y="700"/>
                        </Array>
                        <mxPoint as="offset"/>
                    </mxGeometry>
                </mxCell>
                <mxCell id="35" value="&lt;font style=&quot;font-size: 12px;&quot;&gt;Insert new consumption information&lt;/font&gt;" style="html=1;verticalAlign=bottom;labelBackgroundColor=none;endArrow=classic;endFill=1;fontSize=16;fontColor=#99CCFF;strokeWidth=2;" edge="1" parent="1">
                    <mxGeometry x="0.0018" width="160" relative="1" as="geometry">
                        <mxPoint x="365" y="713" as="sourcePoint"/>
                        <mxPoint x="634.9999999999999" y="713" as="targetPoint"/>
                        <Array as="points">
                            <mxPoint x="500" y="713"/>
                        </Array>
                        <mxPoint as="offset"/>
                    </mxGeometry>
                </mxCell>
                <mxCell id="36" value="&lt;font style=&quot;font-size: 12px;&quot;&gt;Insertion OK&lt;/font&gt;" style="html=1;verticalAlign=bottom;labelBackgroundColor=none;endArrow=open;endFill=0;fontSize=16;fontColor=#99CCFF;strokeWidth=2;dashed=1;" edge="1" parent="1" source="34" target="32">
                    <mxGeometry y="20" width="160" relative="1" as="geometry">
                        <mxPoint x="635" y="730" as="sourcePoint"/>
                        <mxPoint x="365" y="730" as="targetPoint"/>
                        <Array as="points">
                            <mxPoint x="500" y="730"/>
                        </Array>
                        <mxPoint as="offset"/>
                    </mxGeometry>
                </mxCell>
                <mxCell id="37" value="&lt;font style=&quot;font-size: 12px;&quot;&gt;Display updated Consumptions&lt;/font&gt;" style="html=1;verticalAlign=bottom;labelBackgroundColor=none;endArrow=open;endFill=0;fontSize=16;fontColor=#99CCFF;strokeWidth=2;dashed=1;" edge="1" parent="1" source="32" target="4">
                    <mxGeometry y="20" width="160" relative="1" as="geometry">
                        <mxPoint x="370" y="750" as="sourcePoint"/>
                        <mxPoint x="97.5" y="750" as="targetPoint"/>
                        <Array as="points">
                            <mxPoint x="232.5" y="750"/>
                        </Array>
                        <mxPoint as="offset"/>
                    </mxGeometry>
                </mxCell>
            </root>
        </mxGraphModel>
    </diagram>
</mxfile>